<?xml version="1.0" standalone="no"?>
<!DOCTYPE svg PUBLIC "-//W3C//DTD SVG 20010904//EN"
 "http://www.w3.org/TR/2001/REC-SVG-20010904/DTD/svg10.dtd">
<svg version="1.0" xmlns="http://www.w3.org/2000/svg"
 width="150.000000pt" height="150.000000pt" viewBox="0 0 150.000000 150.000000"
 preserveAspectRatio="xMidYMid meet">
<metadata>
Created by potrace 1.11, written by Peter Selinger 2001-2013
</metadata>
<g transform="translate(0.000000,150.000000) scale(0.100000,-0.100000)"
fill="#000000" stroke="none">
<path d="M574 1475 c-194 -49 -353 -164 -459 -330 -122 -192 -146 -462 -59
-677 23 -55 75 -145 107 -185 26 -31 131 -133 138 -133 4 0 14 -6 21 -13 25
-25 122 -74 203 -102 70 -25 96 -28 205 -29 140 -1 178 4 265 34 70 24 165 72
165 83 0 4 6 7 14 7 26 0 164 145 214 226 27 44 63 118 78 165 26 77 28 97 28
229 -1 129 -3 154 -27 225 -43 129 -146 280 -243 355 -70 54 -96 70 -149 95
-55 25 -125 49 -179 62 -12 2 -68 6 -126 8 -85 3 -122 -1 -196 -20z"/>
</g>
</svg>
